<mxfile host="app.diagrams.net" agent="Mozilla/5.0 (Macintosh; Intel Mac OS X 10_15_7) AppleWebKit/537.36 (KHTML, like Gecko) Chrome/136.0.0.0 Safari/537.36" version="27.0.6" pages="6">
  <diagram name="第 1 页" id="EWhugVfU-O60s7XfR1V5">
    <mxGraphModel dx="1434" dy="743" grid="0" gridSize="10" guides="1" tooltips="1" connect="1" arrows="1" fold="1" page="1" pageScale="1" pageWidth="827" pageHeight="1169" math="0" shadow="0">
      <root>
        <mxCell id="0" />
        <mxCell id="1" parent="0" />
        <mxCell id="Tv16u6YU0jMJky5b77n7-7" style="edgeStyle=orthogonalEdgeStyle;rounded=0;orthogonalLoop=1;jettySize=auto;html=1;exitX=0.5;exitY=1;exitDx=0;exitDy=0;" edge="1" parent="1" source="Tv16u6YU0jMJky5b77n7-1" target="Tv16u6YU0jMJky5b77n7-2">
          <mxGeometry relative="1" as="geometry" />
        </mxCell>
        <mxCell id="Tv16u6YU0jMJky5b77n7-8" style="edgeStyle=orthogonalEdgeStyle;rounded=0;orthogonalLoop=1;jettySize=auto;html=1;exitX=0.5;exitY=1;exitDx=0;exitDy=0;" edge="1" parent="1" source="Tv16u6YU0jMJky5b77n7-1" target="Tv16u6YU0jMJky5b77n7-3">
          <mxGeometry relative="1" as="geometry" />
        </mxCell>
        <mxCell id="Tv16u6YU0jMJky5b77n7-9" style="edgeStyle=orthogonalEdgeStyle;rounded=0;orthogonalLoop=1;jettySize=auto;html=1;exitX=0.5;exitY=1;exitDx=0;exitDy=0;" edge="1" parent="1" source="Tv16u6YU0jMJky5b77n7-1" target="Tv16u6YU0jMJky5b77n7-4">
          <mxGeometry relative="1" as="geometry" />
        </mxCell>
        <mxCell id="Tv16u6YU0jMJky5b77n7-1" value="YmatDecoder" style="rounded=1;whiteSpace=wrap;html=1;" vertex="1" parent="1">
          <mxGeometry x="349" y="280" width="120" height="60" as="geometry" />
        </mxCell>
        <mxCell id="Tv16u6YU0jMJky5b77n7-2" value="video流" style="rounded=1;whiteSpace=wrap;html=1;" vertex="1" parent="1">
          <mxGeometry x="112" y="391" width="120" height="60" as="geometry" />
        </mxCell>
        <mxCell id="Tv16u6YU0jMJky5b77n7-3" value="image数据" style="rounded=1;whiteSpace=wrap;html=1;" vertex="1" parent="1">
          <mxGeometry x="349" y="391" width="120" height="60" as="geometry" />
        </mxCell>
        <mxCell id="Tv16u6YU0jMJky5b77n7-4" value="json" style="rounded=1;whiteSpace=wrap;html=1;" vertex="1" parent="1">
          <mxGeometry x="580" y="391" width="120" height="60" as="geometry" />
        </mxCell>
        <mxCell id="Tv16u6YU0jMJky5b77n7-18" style="edgeStyle=orthogonalEdgeStyle;rounded=0;orthogonalLoop=1;jettySize=auto;html=1;exitX=0.5;exitY=1;exitDx=0;exitDy=0;" edge="1" parent="1" source="Tv16u6YU0jMJky5b77n7-4" target="Tv16u6YU0jMJky5b77n7-16">
          <mxGeometry relative="1" as="geometry">
            <mxPoint x="409" y="589" as="sourcePoint" />
          </mxGeometry>
        </mxCell>
        <mxCell id="Tv16u6YU0jMJky5b77n7-16" value="Native C++" style="rounded=1;whiteSpace=wrap;html=1;" vertex="1" parent="1">
          <mxGeometry x="580" y="522" width="120" height="60" as="geometry" />
        </mxCell>
        <mxCell id="Tv16u6YU0jMJky5b77n7-22" style="edgeStyle=orthogonalEdgeStyle;rounded=0;orthogonalLoop=1;jettySize=auto;html=1;exitX=0.5;exitY=1;exitDx=0;exitDy=0;" edge="1" parent="1" source="Tv16u6YU0jMJky5b77n7-21" target="Tv16u6YU0jMJky5b77n7-1">
          <mxGeometry relative="1" as="geometry" />
        </mxCell>
        <mxCell id="Tv16u6YU0jMJky5b77n7-21" value="YmatPlayer" style="rounded=1;whiteSpace=wrap;html=1;" vertex="1" parent="1">
          <mxGeometry x="349" y="160" width="120" height="60" as="geometry" />
        </mxCell>
        <mxCell id="Tv16u6YU0jMJky5b77n7-24" style="edgeStyle=orthogonalEdgeStyle;rounded=0;orthogonalLoop=1;jettySize=auto;html=1;exitX=0;exitY=0.5;exitDx=0;exitDy=0;" edge="1" parent="1" source="Tv16u6YU0jMJky5b77n7-23" target="Tv16u6YU0jMJky5b77n7-21">
          <mxGeometry relative="1" as="geometry" />
        </mxCell>
        <mxCell id="Tv16u6YU0jMJky5b77n7-23" value="ymat文件" style="rounded=1;whiteSpace=wrap;html=1;" vertex="1" parent="1">
          <mxGeometry x="558" y="160" width="120" height="60" as="geometry" />
        </mxCell>
        <mxCell id="Tv16u6YU0jMJky5b77n7-28" style="edgeStyle=orthogonalEdgeStyle;rounded=0;orthogonalLoop=1;jettySize=auto;html=1;exitX=0.5;exitY=1;exitDx=0;exitDy=0;" edge="1" parent="1" source="Tv16u6YU0jMJky5b77n7-27" target="Tv16u6YU0jMJky5b77n7-21">
          <mxGeometry relative="1" as="geometry" />
        </mxCell>
        <mxCell id="Tv16u6YU0jMJky5b77n7-27" value="YmatView容器" style="rounded=1;whiteSpace=wrap;html=1;" vertex="1" parent="1">
          <mxGeometry x="349" y="50" width="120" height="60" as="geometry" />
        </mxCell>
      </root>
    </mxGraphModel>
  </diagram>
  <diagram id="eP03EkvbcqQ951tV_vfs" name="第 2 页">
    <mxGraphModel dx="1434" dy="743" grid="0" gridSize="10" guides="1" tooltips="1" connect="1" arrows="1" fold="1" page="1" pageScale="1" pageWidth="827" pageHeight="1169" math="0" shadow="0">
      <root>
        <mxCell id="0" />
        <mxCell id="1" parent="0" />
        <mxCell id="yEpw6O7rATTUgL_w5vFD-4" style="edgeStyle=orthogonalEdgeStyle;rounded=0;orthogonalLoop=1;jettySize=auto;html=1;exitX=0.5;exitY=1;exitDx=0;exitDy=0;" edge="1" parent="1" source="yEpw6O7rATTUgL_w5vFD-2" target="yEpw6O7rATTUgL_w5vFD-3">
          <mxGeometry relative="1" as="geometry" />
        </mxCell>
        <mxCell id="yEpw6O7rATTUgL_w5vFD-2" value="Native层" style="rounded=1;whiteSpace=wrap;html=1;" vertex="1" parent="1">
          <mxGeometry x="354" y="32" width="120" height="60" as="geometry" />
        </mxCell>
        <mxCell id="yEpw6O7rATTUgL_w5vFD-9" style="edgeStyle=orthogonalEdgeStyle;rounded=0;orthogonalLoop=1;jettySize=auto;html=1;exitX=0.5;exitY=1;exitDx=0;exitDy=0;" edge="1" parent="1" source="yEpw6O7rATTUgL_w5vFD-3" target="yEpw6O7rATTUgL_w5vFD-5">
          <mxGeometry relative="1" as="geometry" />
        </mxCell>
        <mxCell id="yEpw6O7rATTUgL_w5vFD-10" style="edgeStyle=orthogonalEdgeStyle;rounded=0;orthogonalLoop=1;jettySize=auto;html=1;exitX=0.5;exitY=1;exitDx=0;exitDy=0;" edge="1" parent="1" source="yEpw6O7rATTUgL_w5vFD-3" target="yEpw6O7rATTUgL_w5vFD-6">
          <mxGeometry relative="1" as="geometry" />
        </mxCell>
        <mxCell id="yEpw6O7rATTUgL_w5vFD-11" style="edgeStyle=orthogonalEdgeStyle;rounded=0;orthogonalLoop=1;jettySize=auto;html=1;exitX=0.5;exitY=1;exitDx=0;exitDy=0;" edge="1" parent="1" source="yEpw6O7rATTUgL_w5vFD-3" target="yEpw6O7rATTUgL_w5vFD-7">
          <mxGeometry relative="1" as="geometry" />
        </mxCell>
        <mxCell id="yEpw6O7rATTUgL_w5vFD-12" style="edgeStyle=orthogonalEdgeStyle;rounded=0;orthogonalLoop=1;jettySize=auto;html=1;exitX=0.5;exitY=1;exitDx=0;exitDy=0;" edge="1" parent="1" source="yEpw6O7rATTUgL_w5vFD-3" target="yEpw6O7rATTUgL_w5vFD-8">
          <mxGeometry relative="1" as="geometry" />
        </mxCell>
        <mxCell id="yEpw6O7rATTUgL_w5vFD-3" value="json解析" style="rounded=1;whiteSpace=wrap;html=1;" vertex="1" parent="1">
          <mxGeometry x="354" y="139" width="120" height="60" as="geometry" />
        </mxCell>
        <mxCell id="yEpw6O7rATTUgL_w5vFD-22" style="edgeStyle=orthogonalEdgeStyle;rounded=0;orthogonalLoop=1;jettySize=auto;html=1;exitX=0.5;exitY=1;exitDx=0;exitDy=0;" edge="1" parent="1" source="yEpw6O7rATTUgL_w5vFD-5" target="yEpw6O7rATTUgL_w5vFD-21">
          <mxGeometry relative="1" as="geometry" />
        </mxCell>
        <mxCell id="yEpw6O7rATTUgL_w5vFD-5" value="video" style="rounded=1;whiteSpace=wrap;html=1;" vertex="1" parent="1">
          <mxGeometry x="59" y="258" width="120" height="60" as="geometry" />
        </mxCell>
        <mxCell id="yEpw6O7rATTUgL_w5vFD-23" style="edgeStyle=orthogonalEdgeStyle;rounded=0;orthogonalLoop=1;jettySize=auto;html=1;exitX=0.5;exitY=1;exitDx=0;exitDy=0;" edge="1" parent="1" source="yEpw6O7rATTUgL_w5vFD-6" target="yEpw6O7rATTUgL_w5vFD-21">
          <mxGeometry relative="1" as="geometry" />
        </mxCell>
        <mxCell id="yEpw6O7rATTUgL_w5vFD-6" value="image" style="rounded=1;whiteSpace=wrap;html=1;" vertex="1" parent="1">
          <mxGeometry x="253" y="258" width="120" height="60" as="geometry" />
        </mxCell>
        <mxCell id="yEpw6O7rATTUgL_w5vFD-24" style="edgeStyle=orthogonalEdgeStyle;rounded=0;orthogonalLoop=1;jettySize=auto;html=1;exitX=0.5;exitY=1;exitDx=0;exitDy=0;" edge="1" parent="1" source="yEpw6O7rATTUgL_w5vFD-7" target="yEpw6O7rATTUgL_w5vFD-21">
          <mxGeometry relative="1" as="geometry" />
        </mxCell>
        <mxCell id="yEpw6O7rATTUgL_w5vFD-7" value="shape" style="rounded=1;whiteSpace=wrap;html=1;" vertex="1" parent="1">
          <mxGeometry x="454" y="258" width="120" height="60" as="geometry" />
        </mxCell>
        <mxCell id="yEpw6O7rATTUgL_w5vFD-25" style="edgeStyle=orthogonalEdgeStyle;rounded=0;orthogonalLoop=1;jettySize=auto;html=1;exitX=0.5;exitY=1;exitDx=0;exitDy=0;" edge="1" parent="1" source="yEpw6O7rATTUgL_w5vFD-8" target="yEpw6O7rATTUgL_w5vFD-21">
          <mxGeometry relative="1" as="geometry" />
        </mxCell>
        <mxCell id="yEpw6O7rATTUgL_w5vFD-8" value="text" style="rounded=1;whiteSpace=wrap;html=1;" vertex="1" parent="1">
          <mxGeometry x="655" y="258" width="120" height="60" as="geometry" />
        </mxCell>
        <mxCell id="yEpw6O7rATTUgL_w5vFD-21" value="YmatPlayer&lt;div&gt;管理解析信息&lt;/div&gt;" style="rounded=1;whiteSpace=wrap;html=1;" vertex="1" parent="1">
          <mxGeometry x="347" y="409" width="120" height="60" as="geometry" />
        </mxCell>
        <mxCell id="U3pCkV2FKnvOMG3sb8sP-5" style="edgeStyle=orthogonalEdgeStyle;rounded=0;orthogonalLoop=1;jettySize=auto;html=1;exitX=0.5;exitY=1;exitDx=0;exitDy=0;" edge="1" parent="1" source="yEpw6O7rATTUgL_w5vFD-26" target="U3pCkV2FKnvOMG3sb8sP-4">
          <mxGeometry relative="1" as="geometry">
            <Array as="points">
              <mxPoint x="119" y="696" />
              <mxPoint x="404" y="696" />
            </Array>
          </mxGeometry>
        </mxCell>
        <mxCell id="yEpw6O7rATTUgL_w5vFD-26" value="HardDecoder&lt;div&gt;Android层硬解&lt;/div&gt;" style="rounded=1;whiteSpace=wrap;html=1;" vertex="1" parent="1">
          <mxGeometry x="59" y="509" width="120" height="60" as="geometry" />
        </mxCell>
        <mxCell id="yEpw6O7rATTUgL_w5vFD-27" value="" style="endArrow=none;dashed=1;html=1;dashPattern=1 3;strokeWidth=2;rounded=0;entryX=0.5;entryY=1;entryDx=0;entryDy=0;exitX=0.5;exitY=0;exitDx=0;exitDy=0;" edge="1" parent="1" source="yEpw6O7rATTUgL_w5vFD-26" target="yEpw6O7rATTUgL_w5vFD-5">
          <mxGeometry width="50" height="50" relative="1" as="geometry">
            <mxPoint x="47" y="467" as="sourcePoint" />
            <mxPoint x="97" y="417" as="targetPoint" />
          </mxGeometry>
        </mxCell>
        <mxCell id="U3pCkV2FKnvOMG3sb8sP-1" style="edgeStyle=orthogonalEdgeStyle;rounded=0;orthogonalLoop=1;jettySize=auto;html=1;exitX=0.5;exitY=1;exitDx=0;exitDy=0;" edge="1" parent="1" source="yEpw6O7rATTUgL_w5vFD-29" target="yEpw6O7rATTUgL_w5vFD-36">
          <mxGeometry relative="1" as="geometry" />
        </mxCell>
        <mxCell id="yEpw6O7rATTUgL_w5vFD-29" value="ImageDrawer&lt;div&gt;图片绘制&lt;/div&gt;" style="rounded=1;whiteSpace=wrap;html=1;" vertex="1" parent="1">
          <mxGeometry x="253" y="509" width="120" height="60" as="geometry" />
        </mxCell>
        <mxCell id="yEpw6O7rATTUgL_w5vFD-30" value="反射调用" style="text;html=1;align=center;verticalAlign=middle;whiteSpace=wrap;rounded=0;" vertex="1" parent="1">
          <mxGeometry x="335" y="335" width="137" height="30" as="geometry" />
        </mxCell>
        <mxCell id="U3pCkV2FKnvOMG3sb8sP-2" style="edgeStyle=orthogonalEdgeStyle;rounded=0;orthogonalLoop=1;jettySize=auto;html=1;exitX=0.5;exitY=1;exitDx=0;exitDy=0;" edge="1" parent="1" source="yEpw6O7rATTUgL_w5vFD-31" target="yEpw6O7rATTUgL_w5vFD-36">
          <mxGeometry relative="1" as="geometry" />
        </mxCell>
        <mxCell id="yEpw6O7rATTUgL_w5vFD-31" value="ShapDrawer&lt;div&gt;形状绘制&lt;/div&gt;" style="rounded=1;whiteSpace=wrap;html=1;" vertex="1" parent="1">
          <mxGeometry x="454" y="509" width="120" height="60" as="geometry" />
        </mxCell>
        <mxCell id="U3pCkV2FKnvOMG3sb8sP-3" style="edgeStyle=orthogonalEdgeStyle;rounded=0;orthogonalLoop=1;jettySize=auto;html=1;exitX=0.5;exitY=1;exitDx=0;exitDy=0;" edge="1" parent="1" source="yEpw6O7rATTUgL_w5vFD-33" target="yEpw6O7rATTUgL_w5vFD-36">
          <mxGeometry relative="1" as="geometry" />
        </mxCell>
        <mxCell id="yEpw6O7rATTUgL_w5vFD-33" value="TextDrawer&lt;div&gt;文字绘制&lt;/div&gt;" style="rounded=1;whiteSpace=wrap;html=1;" vertex="1" parent="1">
          <mxGeometry x="652" y="509" width="120" height="60" as="geometry" />
        </mxCell>
        <mxCell id="yEpw6O7rATTUgL_w5vFD-34" value="" style="endArrow=none;dashed=1;html=1;dashPattern=1 3;strokeWidth=2;rounded=0;entryX=0.5;entryY=1;entryDx=0;entryDy=0;" edge="1" parent="1" source="yEpw6O7rATTUgL_w5vFD-31" target="yEpw6O7rATTUgL_w5vFD-7">
          <mxGeometry width="50" height="50" relative="1" as="geometry">
            <mxPoint x="129" y="519" as="sourcePoint" />
            <mxPoint x="129" y="328" as="targetPoint" />
          </mxGeometry>
        </mxCell>
        <mxCell id="yEpw6O7rATTUgL_w5vFD-35" value="" style="endArrow=none;dashed=1;html=1;dashPattern=1 3;strokeWidth=2;rounded=0;entryX=0.5;entryY=1;entryDx=0;entryDy=0;" edge="1" parent="1" source="yEpw6O7rATTUgL_w5vFD-33" target="yEpw6O7rATTUgL_w5vFD-8">
          <mxGeometry width="50" height="50" relative="1" as="geometry">
            <mxPoint x="524" y="519" as="sourcePoint" />
            <mxPoint x="524" y="328" as="targetPoint" />
          </mxGeometry>
        </mxCell>
        <mxCell id="U3pCkV2FKnvOMG3sb8sP-6" style="edgeStyle=orthogonalEdgeStyle;rounded=0;orthogonalLoop=1;jettySize=auto;html=1;exitX=0.5;exitY=1;exitDx=0;exitDy=0;" edge="1" parent="1" source="yEpw6O7rATTUgL_w5vFD-36" target="U3pCkV2FKnvOMG3sb8sP-4">
          <mxGeometry relative="1" as="geometry" />
        </mxCell>
        <mxCell id="yEpw6O7rATTUgL_w5vFD-36" value="Bitmap&lt;div&gt;图片格式&lt;/div&gt;" style="rounded=1;whiteSpace=wrap;html=1;" vertex="1" parent="1">
          <mxGeometry x="454" y="614" width="120" height="60" as="geometry" />
        </mxCell>
        <mxCell id="yEpw6O7rATTUgL_w5vFD-37" value="" style="endArrow=none;dashed=1;html=1;dashPattern=1 3;strokeWidth=2;rounded=0;entryX=0.5;entryY=1;entryDx=0;entryDy=0;exitX=0.5;exitY=0;exitDx=0;exitDy=0;" edge="1" parent="1" source="yEpw6O7rATTUgL_w5vFD-29" target="yEpw6O7rATTUgL_w5vFD-6">
          <mxGeometry width="50" height="50" relative="1" as="geometry">
            <mxPoint x="524" y="519" as="sourcePoint" />
            <mxPoint x="524" y="328" as="targetPoint" />
          </mxGeometry>
        </mxCell>
        <mxCell id="U3pCkV2FKnvOMG3sb8sP-4" value="Native层" style="rounded=1;whiteSpace=wrap;html=1;" vertex="1" parent="1">
          <mxGeometry x="343.5" y="719" width="120" height="60" as="geometry" />
        </mxCell>
        <mxCell id="U3pCkV2FKnvOMG3sb8sP-7" value="传输" style="text;html=1;align=center;verticalAlign=middle;resizable=0;points=[];autosize=1;strokeColor=none;fillColor=none;" vertex="1" parent="1">
          <mxGeometry x="258" y="671" width="42" height="26" as="geometry" />
        </mxCell>
        <mxCell id="0HCBsfJeOmG8iptaqQvY-1" value="描述细节" style="text;html=1;align=center;verticalAlign=middle;whiteSpace=wrap;rounded=0;" vertex="1" parent="1">
          <mxGeometry x="383.5" y="238" width="60" height="30" as="geometry" />
        </mxCell>
      </root>
    </mxGraphModel>
  </diagram>
  <diagram id="oPuJGVOvPlIWXSCGTwXe" name="第 3 页">
    <mxGraphModel dx="1434" dy="1912" grid="0" gridSize="10" guides="1" tooltips="1" connect="1" arrows="1" fold="1" page="1" pageScale="1" pageWidth="827" pageHeight="1169" math="0" shadow="0">
      <root>
        <mxCell id="0" />
        <mxCell id="1" parent="0" />
        <mxCell id="HY5E_qMY8fZyo3ierJ6M-3" style="edgeStyle=orthogonalEdgeStyle;rounded=0;orthogonalLoop=1;jettySize=auto;html=1;exitX=0.5;exitY=1;exitDx=0;exitDy=0;" edge="1" parent="1" source="HY5E_qMY8fZyo3ierJ6M-1" target="HY5E_qMY8fZyo3ierJ6M-2">
          <mxGeometry relative="1" as="geometry" />
        </mxCell>
        <mxCell id="HY5E_qMY8fZyo3ierJ6M-1" value="Native&lt;div&gt;YmatPlayer&lt;/div&gt;" style="rounded=1;whiteSpace=wrap;html=1;" vertex="1" parent="1">
          <mxGeometry x="355" y="-1133" width="120" height="60" as="geometry" />
        </mxCell>
        <mxCell id="HY5E_qMY8fZyo3ierJ6M-13" style="edgeStyle=orthogonalEdgeStyle;rounded=0;orthogonalLoop=1;jettySize=auto;html=1;exitX=0.5;exitY=1;exitDx=0;exitDy=0;" edge="1" parent="1" source="HY5E_qMY8fZyo3ierJ6M-2" target="HY5E_qMY8fZyo3ierJ6M-6">
          <mxGeometry relative="1" as="geometry" />
        </mxCell>
        <mxCell id="HY5E_qMY8fZyo3ierJ6M-14" style="edgeStyle=orthogonalEdgeStyle;rounded=0;orthogonalLoop=1;jettySize=auto;html=1;exitX=0.5;exitY=1;exitDx=0;exitDy=0;" edge="1" parent="1" source="HY5E_qMY8fZyo3ierJ6M-2" target="HY5E_qMY8fZyo3ierJ6M-7">
          <mxGeometry relative="1" as="geometry" />
        </mxCell>
        <mxCell id="HY5E_qMY8fZyo3ierJ6M-15" style="edgeStyle=orthogonalEdgeStyle;rounded=0;orthogonalLoop=1;jettySize=auto;html=1;exitX=0.5;exitY=1;exitDx=0;exitDy=0;" edge="1" parent="1" source="HY5E_qMY8fZyo3ierJ6M-2" target="HY5E_qMY8fZyo3ierJ6M-8">
          <mxGeometry relative="1" as="geometry" />
        </mxCell>
        <mxCell id="HY5E_qMY8fZyo3ierJ6M-16" style="edgeStyle=orthogonalEdgeStyle;rounded=0;orthogonalLoop=1;jettySize=auto;html=1;exitX=0.5;exitY=1;exitDx=0;exitDy=0;" edge="1" parent="1" source="HY5E_qMY8fZyo3ierJ6M-2" target="HY5E_qMY8fZyo3ierJ6M-9">
          <mxGeometry relative="1" as="geometry" />
        </mxCell>
        <mxCell id="HY5E_qMY8fZyo3ierJ6M-17" style="edgeStyle=orthogonalEdgeStyle;rounded=0;orthogonalLoop=1;jettySize=auto;html=1;exitX=0.5;exitY=1;exitDx=0;exitDy=0;" edge="1" parent="1" source="HY5E_qMY8fZyo3ierJ6M-2" target="HY5E_qMY8fZyo3ierJ6M-10">
          <mxGeometry relative="1" as="geometry" />
        </mxCell>
        <mxCell id="HY5E_qMY8fZyo3ierJ6M-18" style="edgeStyle=orthogonalEdgeStyle;rounded=0;orthogonalLoop=1;jettySize=auto;html=1;exitX=0.5;exitY=1;exitDx=0;exitDy=0;" edge="1" parent="1" source="HY5E_qMY8fZyo3ierJ6M-2" target="HY5E_qMY8fZyo3ierJ6M-12">
          <mxGeometry relative="1" as="geometry" />
        </mxCell>
        <mxCell id="HY5E_qMY8fZyo3ierJ6M-2" value="RenderController" style="rounded=1;whiteSpace=wrap;html=1;" vertex="1" parent="1">
          <mxGeometry x="355" y="-1034" width="120" height="60" as="geometry" />
        </mxCell>
        <mxCell id="HY5E_qMY8fZyo3ierJ6M-20" style="edgeStyle=orthogonalEdgeStyle;rounded=0;orthogonalLoop=1;jettySize=auto;html=1;exitX=0.5;exitY=1;exitDx=0;exitDy=0;" edge="1" parent="1" source="HY5E_qMY8fZyo3ierJ6M-6" target="HY5E_qMY8fZyo3ierJ6M-19">
          <mxGeometry relative="1" as="geometry" />
        </mxCell>
        <mxCell id="HY5E_qMY8fZyo3ierJ6M-6" value="videoDrawer" style="rounded=1;whiteSpace=wrap;html=1;" vertex="1" parent="1">
          <mxGeometry x="14" y="-923" width="120" height="60" as="geometry" />
        </mxCell>
        <mxCell id="HY5E_qMY8fZyo3ierJ6M-21" style="edgeStyle=orthogonalEdgeStyle;rounded=0;orthogonalLoop=1;jettySize=auto;html=1;exitX=0.5;exitY=1;exitDx=0;exitDy=0;" edge="1" parent="1" source="HY5E_qMY8fZyo3ierJ6M-7" target="HY5E_qMY8fZyo3ierJ6M-19">
          <mxGeometry relative="1" as="geometry" />
        </mxCell>
        <mxCell id="HY5E_qMY8fZyo3ierJ6M-7" value="imageDrawer" style="rounded=1;whiteSpace=wrap;html=1;" vertex="1" parent="1">
          <mxGeometry x="153" y="-923" width="120" height="60" as="geometry" />
        </mxCell>
        <mxCell id="HY5E_qMY8fZyo3ierJ6M-22" style="edgeStyle=orthogonalEdgeStyle;rounded=0;orthogonalLoop=1;jettySize=auto;html=1;exitX=0.5;exitY=1;exitDx=0;exitDy=0;entryX=0.5;entryY=0;entryDx=0;entryDy=0;" edge="1" parent="1" source="HY5E_qMY8fZyo3ierJ6M-8" target="HY5E_qMY8fZyo3ierJ6M-19">
          <mxGeometry relative="1" as="geometry" />
        </mxCell>
        <mxCell id="HY5E_qMY8fZyo3ierJ6M-8" value="shapeDrawer" style="rounded=1;whiteSpace=wrap;html=1;" vertex="1" parent="1">
          <mxGeometry x="300" y="-923" width="120" height="60" as="geometry" />
        </mxCell>
        <mxCell id="HY5E_qMY8fZyo3ierJ6M-24" style="edgeStyle=orthogonalEdgeStyle;rounded=0;orthogonalLoop=1;jettySize=auto;html=1;exitX=0.5;exitY=1;exitDx=0;exitDy=0;" edge="1" parent="1" source="HY5E_qMY8fZyo3ierJ6M-9" target="HY5E_qMY8fZyo3ierJ6M-19">
          <mxGeometry relative="1" as="geometry" />
        </mxCell>
        <mxCell id="HY5E_qMY8fZyo3ierJ6M-9" value="textDrawer" style="rounded=1;whiteSpace=wrap;html=1;" vertex="1" parent="1">
          <mxGeometry x="441" y="-923" width="120" height="60" as="geometry" />
        </mxCell>
        <mxCell id="HY5E_qMY8fZyo3ierJ6M-25" style="edgeStyle=orthogonalEdgeStyle;rounded=0;orthogonalLoop=1;jettySize=auto;html=1;exitX=0.5;exitY=1;exitDx=0;exitDy=0;" edge="1" parent="1" source="HY5E_qMY8fZyo3ierJ6M-10" target="HY5E_qMY8fZyo3ierJ6M-19">
          <mxGeometry relative="1" as="geometry" />
        </mxCell>
        <mxCell id="HY5E_qMY8fZyo3ierJ6M-10" value="vectorDrawer" style="rounded=1;whiteSpace=wrap;html=1;" vertex="1" parent="1">
          <mxGeometry x="580" y="-923" width="120" height="60" as="geometry" />
        </mxCell>
        <mxCell id="HY5E_qMY8fZyo3ierJ6M-26" style="edgeStyle=orthogonalEdgeStyle;rounded=0;orthogonalLoop=1;jettySize=auto;html=1;exitX=0.5;exitY=1;exitDx=0;exitDy=0;" edge="1" parent="1" source="HY5E_qMY8fZyo3ierJ6M-12" target="HY5E_qMY8fZyo3ierJ6M-19">
          <mxGeometry relative="1" as="geometry" />
        </mxCell>
        <mxCell id="HY5E_qMY8fZyo3ierJ6M-12" value="solidDrawer" style="rounded=1;whiteSpace=wrap;html=1;" vertex="1" parent="1">
          <mxGeometry x="719" y="-923" width="120" height="60" as="geometry" />
        </mxCell>
        <mxCell id="HY5E_qMY8fZyo3ierJ6M-28" style="edgeStyle=orthogonalEdgeStyle;rounded=0;orthogonalLoop=1;jettySize=auto;html=1;exitX=0.5;exitY=1;exitDx=0;exitDy=0;" edge="1" parent="1" source="HY5E_qMY8fZyo3ierJ6M-19" target="HY5E_qMY8fZyo3ierJ6M-27">
          <mxGeometry relative="1" as="geometry" />
        </mxCell>
        <mxCell id="HY5E_qMY8fZyo3ierJ6M-19" value="统一Shader" style="rounded=1;whiteSpace=wrap;html=1;" vertex="1" parent="1">
          <mxGeometry x="354" y="-800" width="120" height="60" as="geometry" />
        </mxCell>
        <mxCell id="HY5E_qMY8fZyo3ierJ6M-27" value="Egl环境" style="rounded=1;whiteSpace=wrap;html=1;" vertex="1" parent="1">
          <mxGeometry x="354" y="-701" width="120" height="60" as="geometry" />
        </mxCell>
      </root>
    </mxGraphModel>
  </diagram>
  <diagram id="OefBkJBGNAGeGNbK_XwE" name="第 4 页">
    <mxGraphModel dx="1434" dy="743" grid="0" gridSize="10" guides="1" tooltips="1" connect="1" arrows="1" fold="1" page="1" pageScale="1" pageWidth="827" pageHeight="1169" math="0" shadow="0">
      <root>
        <mxCell id="0" />
        <mxCell id="1" parent="0" />
        <mxCell id="6Zw6OVuJ5S1Un8rVWrgy-3" style="edgeStyle=orthogonalEdgeStyle;rounded=0;orthogonalLoop=1;jettySize=auto;html=1;exitX=0.5;exitY=1;exitDx=0;exitDy=0;" edge="1" parent="1" source="6Zw6OVuJ5S1Un8rVWrgy-1" target="6Zw6OVuJ5S1Un8rVWrgy-2">
          <mxGeometry relative="1" as="geometry" />
        </mxCell>
        <mxCell id="6Zw6OVuJ5S1Un8rVWrgy-1" value="&lt;div&gt;Android&lt;/div&gt;YmatPlayer" style="rounded=1;whiteSpace=wrap;html=1;" vertex="1" parent="1">
          <mxGeometry x="350" y="37" width="120" height="60" as="geometry" />
        </mxCell>
        <mxCell id="6Zw6OVuJ5S1Un8rVWrgy-6" style="edgeStyle=orthogonalEdgeStyle;rounded=0;orthogonalLoop=1;jettySize=auto;html=1;exitX=0.5;exitY=1;exitDx=0;exitDy=0;" edge="1" parent="1" source="6Zw6OVuJ5S1Un8rVWrgy-2" target="6Zw6OVuJ5S1Un8rVWrgy-4">
          <mxGeometry relative="1" as="geometry" />
        </mxCell>
        <mxCell id="6Zw6OVuJ5S1Un8rVWrgy-2" value="&lt;div&gt;YmatSyner&lt;/div&gt;&lt;div&gt;定时器触发刷新&lt;/div&gt;" style="rounded=1;whiteSpace=wrap;html=1;" vertex="1" parent="1">
          <mxGeometry x="350" y="142" width="120" height="60" as="geometry" />
        </mxCell>
        <mxCell id="6Zw6OVuJ5S1Un8rVWrgy-9" style="edgeStyle=orthogonalEdgeStyle;rounded=0;orthogonalLoop=1;jettySize=auto;html=1;exitX=1;exitY=0.5;exitDx=0;exitDy=0;" edge="1" parent="1" source="6Zw6OVuJ5S1Un8rVWrgy-4" target="6Zw6OVuJ5S1Un8rVWrgy-8">
          <mxGeometry relative="1" as="geometry" />
        </mxCell>
        <mxCell id="6Zw6OVuJ5S1Un8rVWrgy-10" style="edgeStyle=orthogonalEdgeStyle;rounded=0;orthogonalLoop=1;jettySize=auto;html=1;exitX=0.5;exitY=1;exitDx=0;exitDy=0;" edge="1" parent="1" source="6Zw6OVuJ5S1Un8rVWrgy-4" target="6Zw6OVuJ5S1Un8rVWrgy-7">
          <mxGeometry relative="1" as="geometry" />
        </mxCell>
        <mxCell id="6Zw6OVuJ5S1Un8rVWrgy-4" value="&lt;div&gt;HardDecode&lt;/div&gt;&lt;div&gt;硬解一帧数据&lt;/div&gt;" style="rounded=1;whiteSpace=wrap;html=1;" vertex="1" parent="1">
          <mxGeometry x="350" y="250" width="120" height="60" as="geometry" />
        </mxCell>
        <mxCell id="6Zw6OVuJ5S1Un8rVWrgy-12" style="edgeStyle=orthogonalEdgeStyle;rounded=0;orthogonalLoop=1;jettySize=auto;html=1;exitX=0.5;exitY=1;exitDx=0;exitDy=0;" edge="1" parent="1" source="6Zw6OVuJ5S1Un8rVWrgy-7" target="6Zw6OVuJ5S1Un8rVWrgy-11">
          <mxGeometry relative="1" as="geometry" />
        </mxCell>
        <mxCell id="6Zw6OVuJ5S1Un8rVWrgy-7" value="&lt;div&gt;&lt;span style=&quot;background-color: transparent; color: light-dark(rgb(0, 0, 0), rgb(255, 255, 255));&quot;&gt;RenderThread&lt;/span&gt;&lt;/div&gt;&lt;div&gt;触发一帧渲染&lt;/div&gt;" style="rounded=1;whiteSpace=wrap;html=1;" vertex="1" parent="1">
          <mxGeometry x="350" y="354" width="120" height="60" as="geometry" />
        </mxCell>
        <mxCell id="6Zw6OVuJ5S1Un8rVWrgy-8" value="&lt;div&gt;updateTexture&lt;/div&gt;&lt;div&gt;更新硬解数据到Egl缓存&lt;/div&gt;" style="rounded=1;whiteSpace=wrap;html=1;" vertex="1" parent="1">
          <mxGeometry x="545" y="250" width="120" height="60" as="geometry" />
        </mxCell>
        <mxCell id="6Zw6OVuJ5S1Un8rVWrgy-15" style="edgeStyle=orthogonalEdgeStyle;rounded=0;orthogonalLoop=1;jettySize=auto;html=1;exitX=0.5;exitY=1;exitDx=0;exitDy=0;" edge="1" parent="1" source="6Zw6OVuJ5S1Un8rVWrgy-11" target="6Zw6OVuJ5S1Un8rVWrgy-13">
          <mxGeometry relative="1" as="geometry" />
        </mxCell>
        <mxCell id="6Zw6OVuJ5S1Un8rVWrgy-11" value="Native Layer&lt;div&gt;读取当前帧每层的渲染数据&lt;/div&gt;" style="rounded=1;whiteSpace=wrap;html=1;" vertex="1" parent="1">
          <mxGeometry x="350" y="465" width="120" height="60" as="geometry" />
        </mxCell>
        <mxCell id="6Zw6OVuJ5S1Un8rVWrgy-16" style="edgeStyle=orthogonalEdgeStyle;rounded=0;orthogonalLoop=1;jettySize=auto;html=1;exitX=0;exitY=0.5;exitDx=0;exitDy=0;entryX=0;entryY=0.5;entryDx=0;entryDy=0;" edge="1" parent="1" source="6Zw6OVuJ5S1Un8rVWrgy-13" target="6Zw6OVuJ5S1Un8rVWrgy-1">
          <mxGeometry relative="1" as="geometry">
            <Array as="points">
              <mxPoint x="141" y="600" />
              <mxPoint x="141" y="67" />
            </Array>
          </mxGeometry>
        </mxCell>
        <mxCell id="6Zw6OVuJ5S1Un8rVWrgy-13" value="draw&lt;div&gt;帧渲染&lt;/div&gt;" style="rounded=1;whiteSpace=wrap;html=1;" vertex="1" parent="1">
          <mxGeometry x="350" y="570" width="120" height="60" as="geometry" />
        </mxCell>
        <mxCell id="6Zw6OVuJ5S1Un8rVWrgy-17" value="是否超过渲染时长" style="text;html=1;align=center;verticalAlign=middle;whiteSpace=wrap;rounded=0;" vertex="1" parent="1">
          <mxGeometry x="148" y="327" width="60" height="30" as="geometry" />
        </mxCell>
      </root>
    </mxGraphModel>
  </diagram>
  <diagram id="HStxzehSwryXPVhPC87U" name="第 5 页">
    <mxGraphModel dx="1426" dy="796" grid="0" gridSize="10" guides="1" tooltips="1" connect="1" arrows="1" fold="1" page="1" pageScale="1" pageWidth="827" pageHeight="1169" math="0" shadow="0">
      <root>
        <mxCell id="0" />
        <mxCell id="1" parent="0" />
        <mxCell id="c5-qGiy_PJyuQdC6ugRt-6" style="edgeStyle=orthogonalEdgeStyle;rounded=0;orthogonalLoop=1;jettySize=auto;html=1;exitX=0.5;exitY=1;exitDx=0;exitDy=0;" edge="1" parent="1" source="c5-qGiy_PJyuQdC6ugRt-1" target="c5-qGiy_PJyuQdC6ugRt-2">
          <mxGeometry relative="1" as="geometry" />
        </mxCell>
        <mxCell id="c5-qGiy_PJyuQdC6ugRt-1" value="YMatView&lt;div&gt;ymat容器&lt;/div&gt;" style="rounded=1;whiteSpace=wrap;html=1;" vertex="1" parent="1">
          <mxGeometry x="340" y="50" width="120" height="60" as="geometry" />
        </mxCell>
        <mxCell id="c5-qGiy_PJyuQdC6ugRt-10" style="edgeStyle=orthogonalEdgeStyle;rounded=0;orthogonalLoop=1;jettySize=auto;html=1;exitX=0.5;exitY=1;exitDx=0;exitDy=0;" edge="1" parent="1" source="c5-qGiy_PJyuQdC6ugRt-2" target="c5-qGiy_PJyuQdC6ugRt-4">
          <mxGeometry relative="1" as="geometry" />
        </mxCell>
        <mxCell id="c5-qGiy_PJyuQdC6ugRt-2" value="YMatPlayer" style="rounded=1;whiteSpace=wrap;html=1;" vertex="1" parent="1">
          <mxGeometry x="340" y="166" width="120" height="60" as="geometry" />
        </mxCell>
        <mxCell id="c5-qGiy_PJyuQdC6ugRt-5" style="edgeStyle=orthogonalEdgeStyle;rounded=0;orthogonalLoop=1;jettySize=auto;html=1;exitX=0;exitY=0.5;exitDx=0;exitDy=0;" edge="1" parent="1" source="c5-qGiy_PJyuQdC6ugRt-3" target="c5-qGiy_PJyuQdC6ugRt-2">
          <mxGeometry relative="1" as="geometry" />
        </mxCell>
        <mxCell id="c5-qGiy_PJyuQdC6ugRt-3" value="YMatParser&lt;div&gt;ymat文件解析&lt;/div&gt;" style="rounded=1;whiteSpace=wrap;html=1;" vertex="1" parent="1">
          <mxGeometry x="567" y="166" width="120" height="60" as="geometry" />
        </mxCell>
        <mxCell id="7id9rXOL1rsaOkSmFd3g-6" style="edgeStyle=orthogonalEdgeStyle;rounded=0;orthogonalLoop=1;jettySize=auto;html=1;exitX=0;exitY=0.25;exitDx=0;exitDy=0;entryX=1;entryY=0.25;entryDx=0;entryDy=0;" edge="1" parent="1" source="c5-qGiy_PJyuQdC6ugRt-4" target="c5-qGiy_PJyuQdC6ugRt-12">
          <mxGeometry relative="1" as="geometry" />
        </mxCell>
        <mxCell id="7id9rXOL1rsaOkSmFd3g-9" style="edgeStyle=orthogonalEdgeStyle;rounded=0;orthogonalLoop=1;jettySize=auto;html=1;exitX=0.5;exitY=1;exitDx=0;exitDy=0;" edge="1" parent="1" source="c5-qGiy_PJyuQdC6ugRt-4" target="7id9rXOL1rsaOkSmFd3g-5">
          <mxGeometry relative="1" as="geometry" />
        </mxCell>
        <mxCell id="LvF0veqbms8LR6I2PfUZ-5" style="edgeStyle=orthogonalEdgeStyle;rounded=0;orthogonalLoop=1;jettySize=auto;html=1;exitX=0.5;exitY=1;exitDx=0;exitDy=0;" edge="1" parent="1" source="c5-qGiy_PJyuQdC6ugRt-4" target="LvF0veqbms8LR6I2PfUZ-4">
          <mxGeometry relative="1" as="geometry" />
        </mxCell>
        <mxCell id="c5-qGiy_PJyuQdC6ugRt-4" value="ymatplayer&lt;div&gt;ymat播放器&lt;/div&gt;" style="rounded=1;whiteSpace=wrap;html=1;" vertex="1" parent="1">
          <mxGeometry x="340" y="294" width="120" height="60" as="geometry" />
        </mxCell>
        <mxCell id="c5-qGiy_PJyuQdC6ugRt-7" value="ymat文件" style="text;html=1;align=center;verticalAlign=middle;whiteSpace=wrap;rounded=0;" vertex="1" parent="1">
          <mxGeometry x="414" y="123" width="60" height="30" as="geometry" />
        </mxCell>
        <mxCell id="c5-qGiy_PJyuQdC6ugRt-8" value="ymatnode&lt;div&gt;资源节点&lt;/div&gt;" style="text;html=1;align=center;verticalAlign=middle;whiteSpace=wrap;rounded=0;" vertex="1" parent="1">
          <mxGeometry x="478" y="201" width="60" height="30" as="geometry" />
        </mxCell>
        <mxCell id="c5-qGiy_PJyuQdC6ugRt-11" value="&lt;div&gt;YMatConig&lt;/div&gt;YMatVideo&lt;div&gt;YMatImage&lt;/div&gt;" style="text;html=1;align=center;verticalAlign=middle;whiteSpace=wrap;rounded=0;" vertex="1" parent="1">
          <mxGeometry x="407" y="234" width="85" height="47" as="geometry" />
        </mxCell>
        <mxCell id="7id9rXOL1rsaOkSmFd3g-7" style="edgeStyle=orthogonalEdgeStyle;rounded=0;orthogonalLoop=1;jettySize=auto;html=1;exitX=1;exitY=0.75;exitDx=0;exitDy=0;entryX=0;entryY=0.75;entryDx=0;entryDy=0;" edge="1" parent="1" source="c5-qGiy_PJyuQdC6ugRt-12" target="c5-qGiy_PJyuQdC6ugRt-4">
          <mxGeometry relative="1" as="geometry" />
        </mxCell>
        <mxCell id="c5-qGiy_PJyuQdC6ugRt-12" value="ymatInfoHandler&lt;div&gt;资源处理&lt;/div&gt;" style="rounded=1;whiteSpace=wrap;html=1;" vertex="1" parent="1">
          <mxGeometry x="55" y="294" width="120" height="60" as="geometry" />
        </mxCell>
        <mxCell id="7id9rXOL1rsaOkSmFd3g-5" value="Layers...&lt;div&gt;初始化渲染层信息&lt;/div&gt;" style="rounded=1;whiteSpace=wrap;html=1;" vertex="1" parent="1">
          <mxGeometry x="194" y="431" width="120" height="60" as="geometry" />
        </mxCell>
        <mxCell id="7id9rXOL1rsaOkSmFd3g-8" value="ymatSourceInfo&lt;div&gt;资源信息&lt;/div&gt;" style="text;html=1;align=center;verticalAlign=middle;whiteSpace=wrap;rounded=0;" vertex="1" parent="1">
          <mxGeometry x="207" y="336" width="102" height="30" as="geometry" />
        </mxCell>
        <mxCell id="LvF0veqbms8LR6I2PfUZ-1" value="initLayers" style="text;html=1;align=center;verticalAlign=middle;whiteSpace=wrap;rounded=0;" vertex="1" parent="1">
          <mxGeometry x="264" y="377" width="85" height="47" as="geometry" />
        </mxCell>
        <mxCell id="LvF0veqbms8LR6I2PfUZ-4" value="textureInfo&lt;div&gt;初始化纹理&lt;/div&gt;" style="rounded=1;whiteSpace=wrap;html=1;" vertex="1" parent="1">
          <mxGeometry x="458" y="431" width="120" height="60" as="geometry" />
        </mxCell>
        <mxCell id="LvF0veqbms8LR6I2PfUZ-6" value="initSource" style="text;html=1;align=center;verticalAlign=middle;whiteSpace=wrap;rounded=0;" vertex="1" parent="1">
          <mxGeometry x="407" y="390" width="85" height="47" as="geometry" />
        </mxCell>
      </root>
    </mxGraphModel>
  </diagram>
  <diagram id="I_sXTRmae4FgzThyrTeD" name="第 6 页">
    <mxGraphModel dx="1426" dy="796" grid="0" gridSize="10" guides="1" tooltips="1" connect="1" arrows="1" fold="1" page="1" pageScale="1" pageWidth="827" pageHeight="1169" math="0" shadow="0">
      <root>
        <mxCell id="0" />
        <mxCell id="1" parent="0" />
        <mxCell id="3JBMaTrTl0sF1CE0afaw-1" style="edgeStyle=orthogonalEdgeStyle;rounded=0;orthogonalLoop=1;jettySize=auto;html=1;exitX=0.5;exitY=1;exitDx=0;exitDy=0;" edge="1" parent="1" source="3JBMaTrTl0sF1CE0afaw-2" target="3JBMaTrTl0sF1CE0afaw-4">
          <mxGeometry relative="1" as="geometry" />
        </mxCell>
        <mxCell id="3JBMaTrTl0sF1CE0afaw-2" value="YMatView&lt;div&gt;XComponent&lt;/div&gt;" style="rounded=1;whiteSpace=wrap;html=1;" vertex="1" parent="1">
          <mxGeometry x="341" y="53" width="120" height="60" as="geometry" />
        </mxCell>
        <mxCell id="3JBMaTrTl0sF1CE0afaw-3" style="edgeStyle=orthogonalEdgeStyle;rounded=0;orthogonalLoop=1;jettySize=auto;html=1;exitX=0.5;exitY=1;exitDx=0;exitDy=0;" edge="1" parent="1" source="3JBMaTrTl0sF1CE0afaw-4" target="3JBMaTrTl0sF1CE0afaw-7">
          <mxGeometry relative="1" as="geometry" />
        </mxCell>
        <mxCell id="3JBMaTrTl0sF1CE0afaw-4" value="syncCallback" style="rounded=1;whiteSpace=wrap;html=1;" vertex="1" parent="1">
          <mxGeometry x="341" y="158" width="120" height="60" as="geometry" />
        </mxCell>
        <mxCell id="3JBMaTrTl0sF1CE0afaw-5" style="edgeStyle=orthogonalEdgeStyle;rounded=0;orthogonalLoop=1;jettySize=auto;html=1;exitX=1;exitY=0.5;exitDx=0;exitDy=0;" edge="1" parent="1" source="3JBMaTrTl0sF1CE0afaw-7" target="3JBMaTrTl0sF1CE0afaw-10">
          <mxGeometry relative="1" as="geometry" />
        </mxCell>
        <mxCell id="3JBMaTrTl0sF1CE0afaw-6" style="edgeStyle=orthogonalEdgeStyle;rounded=0;orthogonalLoop=1;jettySize=auto;html=1;exitX=0.5;exitY=1;exitDx=0;exitDy=0;" edge="1" parent="1" source="3JBMaTrTl0sF1CE0afaw-7" target="3JBMaTrTl0sF1CE0afaw-9">
          <mxGeometry relative="1" as="geometry" />
        </mxCell>
        <mxCell id="3JBMaTrTl0sF1CE0afaw-7" value="&lt;div&gt;ymatplayer&lt;/div&gt;&lt;div&gt;硬解一帧数据&lt;/div&gt;" style="rounded=1;whiteSpace=wrap;html=1;" vertex="1" parent="1">
          <mxGeometry x="341" y="264" width="120" height="60" as="geometry" />
        </mxCell>
        <mxCell id="3JBMaTrTl0sF1CE0afaw-8" style="edgeStyle=orthogonalEdgeStyle;rounded=0;orthogonalLoop=1;jettySize=auto;html=1;exitX=0.5;exitY=1;exitDx=0;exitDy=0;" edge="1" parent="1" source="3JBMaTrTl0sF1CE0afaw-9" target="3JBMaTrTl0sF1CE0afaw-12">
          <mxGeometry relative="1" as="geometry" />
        </mxCell>
        <mxCell id="3JBMaTrTl0sF1CE0afaw-9" value="&lt;div&gt;&lt;span style=&quot;background-color: transparent; color: light-dark(rgb(0, 0, 0), rgb(255, 255, 255));&quot;&gt;RenderThread&lt;/span&gt;&lt;/div&gt;&lt;div&gt;触发一帧渲染&lt;/div&gt;" style="rounded=1;whiteSpace=wrap;html=1;" vertex="1" parent="1">
          <mxGeometry x="341" y="370" width="120" height="60" as="geometry" />
        </mxCell>
        <mxCell id="3JBMaTrTl0sF1CE0afaw-10" value="&lt;div&gt;YMatVideoDecoder&lt;/div&gt;&lt;div&gt;updateSurfaceImage&lt;/div&gt;&lt;div&gt;更新硬解数据到Egl缓存&lt;/div&gt;" style="rounded=1;whiteSpace=wrap;html=1;" vertex="1" parent="1">
          <mxGeometry x="550" y="239" width="120" height="110" as="geometry" />
        </mxCell>
        <mxCell id="3JBMaTrTl0sF1CE0afaw-11" style="edgeStyle=orthogonalEdgeStyle;rounded=0;orthogonalLoop=1;jettySize=auto;html=1;exitX=0.5;exitY=1;exitDx=0;exitDy=0;" edge="1" parent="1" source="3JBMaTrTl0sF1CE0afaw-12" target="3JBMaTrTl0sF1CE0afaw-14">
          <mxGeometry relative="1" as="geometry" />
        </mxCell>
        <mxCell id="3JBMaTrTl0sF1CE0afaw-12" value="Native Layer&lt;div&gt;读取当前帧每层的渲染数据&lt;/div&gt;" style="rounded=1;whiteSpace=wrap;html=1;" vertex="1" parent="1">
          <mxGeometry x="341" y="481" width="120" height="60" as="geometry" />
        </mxCell>
        <mxCell id="3JBMaTrTl0sF1CE0afaw-13" style="edgeStyle=orthogonalEdgeStyle;rounded=0;orthogonalLoop=1;jettySize=auto;html=1;exitX=0;exitY=0.5;exitDx=0;exitDy=0;entryX=0;entryY=0.5;entryDx=0;entryDy=0;" edge="1" parent="1" source="3JBMaTrTl0sF1CE0afaw-14" target="3JBMaTrTl0sF1CE0afaw-2">
          <mxGeometry relative="1" as="geometry">
            <Array as="points">
              <mxPoint x="132" y="616" />
              <mxPoint x="132" y="83" />
            </Array>
          </mxGeometry>
        </mxCell>
        <mxCell id="3JBMaTrTl0sF1CE0afaw-14" value="draw&lt;div&gt;帧渲染&lt;/div&gt;" style="rounded=1;whiteSpace=wrap;html=1;" vertex="1" parent="1">
          <mxGeometry x="341" y="586" width="120" height="60" as="geometry" />
        </mxCell>
        <mxCell id="3JBMaTrTl0sF1CE0afaw-15" value="是否超过渲染时长" style="text;html=1;align=center;verticalAlign=middle;whiteSpace=wrap;rounded=0;" vertex="1" parent="1">
          <mxGeometry x="139" y="343" width="60" height="30" as="geometry" />
        </mxCell>
        <mxCell id="3JBMaTrTl0sF1CE0afaw-17" value="OH_NativeXComponent_RegisterOnFrameCallback" style="text;html=1;align=center;verticalAlign=middle;whiteSpace=wrap;rounded=0;" vertex="1" parent="1">
          <mxGeometry x="515" y="121" width="60" height="27" as="geometry" />
        </mxCell>
      </root>
    </mxGraphModel>
  </diagram>
</mxfile>
